<svg viewBox="0 0 200 200" xmlns="http://www.w3.org/2000/svg">
  <!-- Radiating triangular rays (background layer) - 24 rays with randomized lengths -->
  <g opacity="0.7">
    <polygon points="99.5,104.0 100.5,96.0 178.2,110.3" fill="#FFA500"/>
    <polygon points="98.5,103.7 101.5,96.3 163.2,126.2" fill="#FFB520"/>
    <polygon points="97.6,103.2 102.4,96.8 157.7,144.2" fill="#FFC540"/>
    <polygon points="96.8,102.4 103.2,97.6 143.7,157.0" fill="#FFD060"/>
    <polygon points="96.3,101.5 103.7,98.5 130.8,174.4" fill="#FFA500"/>
    <polygon points="96.0,100.5 104.0,99.5 110.4,178.8" fill="#FFB520"/>
    <polygon points="96.0,99.5 104.0,100.5 89.1,182.5" fill="#FFC540"/>
    <polygon points="96.3,98.5 103.7,101.5 73.4,164.2" fill="#FFD060"/>
    <polygon points="96.8,97.6 103.2,102.4 54.2,159.6" fill="#FFA500"/>
    <polygon points="97.6,96.8 102.4,103.2 45.7,141.7" fill="#FFB520"/>
    <polygon points="98.5,96.3 101.5,103.7 33.7,127.4" fill="#FFC540"/>
    <polygon points="99.5,96.0 100.5,104.0 24.1,110.0" fill="#FFD060"/>
    <polygon points="100.5,96.0 99.5,104.0 32.1,91.1" fill="#FFA500"/>
    <polygon points="101.5,96.3 98.5,103.7 34.1,72.7" fill="#FFB520"/>
    <polygon points="102.4,96.8 97.6,103.2 37.3,51.9" fill="#FFC540"/>
    <polygon points="103.2,97.6 96.8,102.4 53.0,38.7" fill="#FFD060"/>
    <polygon points="103.7,98.5 96.3,101.5 72.5,33.7" fill="#FFA500"/>
    <polygon points="104.0,99.5 96.0,100.5 89.8,22.6" fill="#FFB520"/>
    <polygon points="104.0,100.5 96.0,99.5 110.7,18.9" fill="#FFC540"/>
    <polygon points="103.7,101.5 96.3,98.5 126.1,37.1" fill="#FFD060"/>
    <polygon points="103.2,102.4 96.8,97.6 149.7,35.2" fill="#FFA500"/>
    <polygon points="102.4,103.2 97.6,96.8 163.4,51.4" fill="#FFB520"/>
    <polygon points="101.5,103.7 98.5,96.3 168.2,71.8" fill="#FFC540"/>
    <polygon points="100.5,104.0 99.5,96.0 170.0,90.8" fill="#FFD060"/>
  </g>
  
  <!-- Document stack (front layer) - reduced by 20% with larger offsets -->
  <!-- Back document (offset more left and down) -->
  <rect x="65.7" y="69.9" width="54.6" height="70.2" rx="2.34" fill="#E8E8E8" stroke="#999" stroke-width="1.56"/>
  <line x1="72.4" y1="78.5" x2="113.5" y2="78.5" stroke="#CCC" stroke-width="1.56"/>
  <line x1="72.4" y1="84.7" x2="113.5" y2="84.7" stroke="#CCC" stroke-width="1.56"/>
  <line x1="72.4" y1="90.9" x2="113.5" y2="90.9" stroke="#CCC" stroke-width="1.56"/>
  
  <!-- Middle document (offset right and up with swapped offsets) -->
  <rect x="77.7" y="57.9" width="54.6" height="70.2" rx="2.34" fill="#F5F5F5" stroke="#777" stroke-width="1.56"/>
  <line x1="84.4" y1="66.5" x2="125.5" y2="66.5" stroke="#DDD" stroke-width="1.56"/>
  <line x1="84.4" y1="72.7" x2="125.5" y2="72.7" stroke="#DDD" stroke-width="1.56"/>
  <line x1="84.4" y1="78.9" x2="125.5" y2="78.9" stroke="#DDD" stroke-width="1.56"/>
  <line x1="84.4" y1="85.1" x2="125.5" y2="85.1" stroke="#DDD" stroke-width="1.56"/>
  
  <!-- Front document (centered at 100,100) -->
  <rect x="72.7" y="64.9" width="54.6" height="70.2" rx="2.34" fill="#FFFFFF" stroke="#333" stroke-width="1.95"/>
  <line x1="79.4" y1="73.5" x2="120.5" y2="73.5" stroke="#666" stroke-width="1.95" stroke-linecap="round"/>
  <line x1="79.4" y1="79.7" x2="120.5" y2="79.7" stroke="#999" stroke-width="1.56"/>
  <line x1="79.4" y1="85.9" x2="120.5" y2="85.9" stroke="#999" stroke-width="1.56"/>
  <line x1="79.4" y1="92.1" x2="120.5" y2="92.1" stroke="#999" stroke-width="1.56"/>
  <line x1="79.4" y1="98.3" x2="103.2" y2="98.3" stroke="#999" stroke-width="1.56"/>
</svg>
